<svg xmlns="http://www.w3.org/2000/svg" width="175" height="51" viewBox="0 0 175 51">
    <defs>
        <clipPath id="onfdzoupaa">
            <path data-name="사각형 5855" style="fill:#751485" d="M0 0h173.016v43.252H0z"/>
        </clipPath>
    </defs>
    <g data-name="그룹 48407">
        <g data-name="그룹 32580">
            <path data-name="사각형 7037" style="fill:none" d="M0 0h173v50H0z" transform="translate(0 1)"/>
            <g data-name="그룹 31044">
                <g data-name="그룹 7287" transform="translate(.2 4.17)" style="clip-path:url(#onfdzoupaa)">
                    <path data-name="패스 4295" d="M56.242 0h-5.2c1.061 0 1.539 1.114 1.114 2.759 0 0-11.619 37.085-11.725 37.244-.052-.159-7.974-25.471-7.974-25.471l3.906-11.508C36.894 1.22 38.167 0 39.228 0h-6.209c1.061 0 1.539 1.114 1.114 2.759l-2.862 8.005-2.511-8.005C28.337 1.114 28.815 0 29.876 0H16.833c1.061 0 2.335 1.22 2.918 3.024l6.69 21.464S21.3 39 21.249 39.156C21.141 39 9.817 2.759 9.817 2.759 9.393 1.114 9.871 0 10.931 0H0l13.209 42.283h11.373a2.31 2.31 0 0 1-.53-.106c-.744-.266-1.086-1.039-.537-2.66l4.088-11.3 3.5 11.1c.733 1.9.053 2.971-1.061 2.971h13.044c-.125 0 7.356-25.905 11.122-37.161v37.156h32.709V35.7s-1.37 4.155-8.246 4.155H65.026a1.983 1.983 0 0 1-1.9-1.962V22.067h19.017c4.3 0 4.774 2.759 4.774 2.759v-8.8s-.4 2.759-4.774 2.759H63.124V4.388a1.984 1.984 0 0 1 1.9-1.962h13.647c6.876 0 8.246 4.155 8.246 4.155V0H56.242z" style="fill:#751485"/>
                    <path data-name="패스 4296" d="M112.861.053c.92 0 1.679 1.009 1.787 2.546v30.684c0 4.722-4.424 7.642-8.916 7.642-4.439 0-8.9-2.919-8.9-7.642V2.812c0-1.7.811-2.812 1.732-2.812h-10.65v30.1c0 7.587 8.38 13.149 17.818 13.149 9.91 0 17.492-5.138 17.871-12.406V.053z" transform="translate(49.412)" style="fill:#751485"/>
                    <path data-name="패스 4297" d="M80.062 0H61.116v33.89h8.763c-.85 0-1.573-.934-1.573-2.381V20.161h8L80.6 33.89h8.763a1.9 1.9 0 0 1-.425-.084 4.245 4.245 0 0 1-1.762-2.034l-.425-1.284c-.033-.052-1.532-4.817-3.333-10.564l1.412-.073c6.638-.651 8.808-5.261 8.85-10.151.042-6.167-5.325-9.7-13.618-9.7M68.306 18.021V3.365c0-1.653 1.467-1.465 2.3-1.464l5.034 16.12zM88.959 9.7c0 1.354-.017 6.433-6.27 7.909C80.8 11.575 78.759 5.044 77.778 1.9h.156C89.077 1.9 89 8.679 88.959 9.7" transform="translate(34.35)" style="fill:#751485"/>
                </g>
            </g>
        </g>
        <path data-name="사각형 12586" style="fill:none" d="M0 0h175v50H0z"/>
    </g>
</svg>
